<?xml version="1.0" encoding="UTF-8"?> <svg xmlns="http://www.w3.org/2000/svg" xmlns:xlink="http://www.w3.org/1999/xlink" id="El_Parque_Papas_Negativo" data-name="El Parque Papas Negativo" width="349.753" height="102.06" viewBox="0 0 349.753 102.06"><defs><clipPath id="clip-path"><rect id="Rectángulo_1" data-name="Rectángulo 1" width="349.753" height="102.06" fill="#fffaeb"></rect></clipPath></defs><g id="Grupo_5" data-name="Grupo 5"><g id="Grupo_4" data-name="Grupo 4"><g id="Grupo_3" data-name="Grupo 3" clip-path="url(#clip-path)"><path id="Trazado_18" data-name="Trazado 18" d="M248.516,20.316a.511.511,0,0,0-.5.5V31.671l-2.228-.005V20.838a.527.527,0,0,0-.491-.52h-2.539a.52.52,0,0,0-.505.515V32.8l-2.228,0,0-11.947a.522.522,0,0,0-.488-.537h-2.565a.524.524,0,0,0-.488.534l0,13.085-2.227.005,0-13.086a.522.522,0,0,0-.493-.539l-2.5,0a.519.519,0,0,0-.536.543V36.576l-3.282,1.939s-14.926-8.107-41.355-6.493a.551.551,0,0,1-.634-.5V20.854a.522.522,0,0,0-.548-.536l-6.278,0a.589.589,0,0,1-.436-.972L195.162.2a.559.559,0,0,1,.445-.2h42.057a.582.582,0,0,1,.444.2l16.785,19.143a.583.583,0,0,1-.437.969" transform="translate(-40.454 0)" fill="#fffaeb"></path><path id="Trazado_19" data-name="Trazado 19" d="M235.43,56.2c-1.685.69-2.651,1.125-2.983,1.28a.264.264,0,0,1-.24-.023c-1.747-1.132-22.443-13.779-52.806-15.316,14.892,1.753,35.54,5.917,47.673,17.219a.254.254,0,0,1-.077.418l-3.068,1.3a.424.424,0,0,1-.464-.085c-1.808-1.737-15.935-14.273-47.759-16.887,13.547,2.258,32.79,7.33,43.261,18.6a.35.35,0,0,1-.124.559l-2.736,1.164a.342.342,0,0,1-.379-.07c-1.747-1.776-18.253-18.555-54.685-20.121a.665.665,0,0,1-.488-.231s-2.165-2.482-2.781-3.2c-.163-.191-.033-.368.173-.416,9.2-2.116,56.729-1.335,77.544,15.353a.269.269,0,0,1-.062.458" transform="translate(-35.83 -8.87)" fill="#fffaeb"></path><path id="Trazado_20" data-name="Trazado 20" d="M283.376,43.078c-2.736,1.171-3.725,1.59-4.05,1.722a.446.446,0,0,1-.27.023,12.872,12.872,0,0,0-2.6-.213s-14.209.5-24.132,9.937a.422.422,0,0,1-.549.039c-.417-.326-1.368-.846-1.855-1.218-.216-.171-.316-.375-.1-.554,2.033-1.644,12.509-8.976,23.32-9.876a47.1,47.1,0,0,0-26.182,8.393c-1.336-.755-2.844-1.474-2.844-1.474,1.159-.97,14.428-9.037,29.1-9.068-10.533-.993-20.116-.388-32.241,8.323a.174.174,0,0,1-.216-.008,11.932,11.932,0,0,0-2.751-1.42.19.19,0,0,1-.054-.341c2.658-1.761,20.031-14.521,40.928-7.191l.278.093.193.07c.077.031.147.054.224.085.008.008.023.008.031.016,1.236.535,3.362,1.582,3.841,2.281a.249.249,0,0,1-.069.38" transform="translate(-54.043 -8.502)" fill="#fffaeb"></path><path id="Trazado_21" data-name="Trazado 21" d="M17.708,91.21v5.7H15.262a11.231,11.231,0,0,0-1-2.3,3.147,3.147,0,0,0-.978-.946,3.962,3.962,0,0,0-1.95-.351H7.454v8.6H9.8a2.862,2.862,0,0,0,1.24-.224,1.8,1.8,0,0,0,.734-.746,6.676,6.676,0,0,0,.566-1.61H14.35V106.6H12.337a6.258,6.258,0,0,0-.56-1.586,1.812,1.812,0,0,0-.716-.776A2.626,2.626,0,0,0,9.8,104H7.454v9.558h3.862a5.377,5.377,0,0,0,1.054-.081,2.359,2.359,0,0,0,.771-.282,2.5,2.5,0,0,0,.651-.534,4.792,4.792,0,0,0,.551-.731,7.471,7.471,0,0,0,.513-1.036c.168-.434.366-1.018.583-1.779h2.447l-.338,6.539H0v-1.182a4.89,4.89,0,0,0,1.053-.384,1.331,1.331,0,0,0,.566-.573,2.592,2.592,0,0,0,.245-.925c.034-.376.056-.851.056-1.427V95.724c0-.569-.022-1.032-.049-1.413a2.336,2.336,0,0,0-.235-.93A1.407,1.407,0,0,0,1.07,92.8,3.863,3.863,0,0,0,0,92.4V91.21Z" transform="translate(0 -20.459)" fill="#fffaeb"></path><path id="Trazado_22" data-name="Trazado 22" d="M39.523,91.21V92.4a3.792,3.792,0,0,0-1.012.384,1.428,1.428,0,0,0-.578.553,2.347,2.347,0,0,0-.274.922c-.036.388-.056.855-.056,1.44v17.827h3.461a3.53,3.53,0,0,0,1.657-.327,2.894,2.894,0,0,0,1.084-.983,6.876,6.876,0,0,0,.781-1.765c.223-.712.395-1.4.529-2.026h2.438l-.384,7.232H30.159v-1.182a4.763,4.763,0,0,0,1.046-.392,1.333,1.333,0,0,0,.566-.577,2.461,2.461,0,0,0,.242-.939c.038-.371.061-.842.061-1.426V95.724c0-.569-.023-1.032-.046-1.413a2.469,2.469,0,0,0-.239-.93,1.385,1.385,0,0,0-.57-.585,3.917,3.917,0,0,0-1.06-.4V91.21Z" transform="translate(-6.852 -20.459)" fill="#fffaeb"></path><path id="Trazado_23" data-name="Trazado 23" d="M79.733,111.179a12.234,12.234,0,0,0,.08,1.675,2.1,2.1,0,0,0,.3.787,1.519,1.519,0,0,0,.594.492,4.25,4.25,0,0,0,1.19.341v1.182H72.289v-1.182a5.312,5.312,0,0,0,1.046-.384,1.354,1.354,0,0,0,.571-.575,2.576,2.576,0,0,0,.239-.924c.035-.374.056-.852.056-1.427V95.721c0-.568-.022-1.028-.044-1.41a2.512,2.512,0,0,0-.23-.929,1.488,1.488,0,0,0-.577-.586,3.992,3.992,0,0,0-1.062-.4V91.21H82.662c3,0,5.262.545,6.757,1.626a5.714,5.714,0,0,1,2.25,4.985,7.857,7.857,0,0,1-1.056,4.138,6.568,6.568,0,0,1-3.056,2.662,12.1,12.1,0,0,1-4.988.893c-1.152,0-2.1-.016-2.835-.062Zm0-7.748h1.532a6.53,6.53,0,0,0,2.842-.519A3.2,3.2,0,0,0,85.66,101.3a7.137,7.137,0,0,0,.514-2.992,7.019,7.019,0,0,0-.514-2.968,3.025,3.025,0,0,0-1.481-1.561,5.8,5.8,0,0,0-2.514-.472c-.842,0-1.478.015-1.933.03Z" transform="translate(-16.424 -20.459)" fill="#fffaeb"></path><path id="Trazado_24" data-name="Trazado 24" d="M111.93,108.049h-7.618l-.583,1.7c-.168.486-.306.952-.42,1.4a6.476,6.476,0,0,0-.154,1.42,1.718,1.718,0,0,0,1.857,1.879v1.184H97.4V114.44a2.209,2.209,0,0,0,1.152-.461,3.813,3.813,0,0,0,.917-1.077,12.209,12.209,0,0,0,.869-1.947l7.442-19.9h4.761l5.891,20.051a14.843,14.843,0,0,0,.658,1.918,2.511,2.511,0,0,0,.709.9,2.459,2.459,0,0,0,1.19.517v1.184h-9.854V114.44a2.366,2.366,0,0,0,1.376-.521,1.507,1.507,0,0,0,.434-1.161,6.729,6.729,0,0,0-.113-1.234c-.085-.455-.226-1.027-.416-1.726ZM105,105.956h6.42l-2.85-10.082Z" transform="translate(-22.128 -20.425)" fill="#fffaeb"></path><path id="Trazado_25" data-name="Trazado 25" d="M142.815,115.659h-9.37v-1.184a5.058,5.058,0,0,0,1.046-.386,1.244,1.244,0,0,0,.566-.571,2.4,2.4,0,0,0,.246-.925q.054-.562.055-1.426V95.724c0-.569-.019-1.03-.043-1.412a2.518,2.518,0,0,0-.229-.93,1.491,1.491,0,0,0-.581-.585,3.833,3.833,0,0,0-1.059-.4V91.212h10.4a18.126,18.126,0,0,1,3.576.3,8.876,8.876,0,0,1,2.579.9,5.3,5.3,0,0,1,1.572,1.255,5.575,5.575,0,0,1,1,1.775,7.555,7.555,0,0,1,.343,2.357,6.693,6.693,0,0,1-.616,3.015,6.071,6.071,0,0,1-1.658,2.082,11.217,11.217,0,0,1-2.8,1.572v.175a6.316,6.316,0,0,1,2.186,1.523,10.458,10.458,0,0,1,1.563,2.44l1.123,2.426a9.654,9.654,0,0,0,1.5,2.449,2.951,2.951,0,0,0,1.756.991v1.184H149.1a26.557,26.557,0,0,1-2.344-4.262l-1.389-3.065a10.8,10.8,0,0,0-1.061-1.933,2.98,2.98,0,0,0-.928-.794,3.816,3.816,0,0,0-1.44-.209H140.89v5.77a8.949,8.949,0,0,0,.123,1.877,1.5,1.5,0,0,0,.495.864,3.2,3.2,0,0,0,1.308.568ZM140.89,93.338V103.3h1.765a6.016,6.016,0,0,0,2.357-.386,3.55,3.55,0,0,0,1.477-1.068,4.1,4.1,0,0,0,.747-1.627,9.907,9.907,0,0,0,.2-2.035,5.148,5.148,0,0,0-1.138-3.654,4.429,4.429,0,0,0-3.389-1.224c-1.022,0-1.7.015-2.019.034" transform="translate(-30.319 -20.46)" fill="#fffaeb"></path><path id="Trazado_26" data-name="Trazado 26" d="M181.313,115.315l1.116,1.52c.281.387.553.734.791,1.026a6.211,6.211,0,0,0,.805.763,2.8,2.8,0,0,0,.828.448,2.457,2.457,0,0,0,.86.137,4.688,4.688,0,0,0,.937-.088,3.384,3.384,0,0,0,.825-.356,7.349,7.349,0,0,0,1-.726l1.254,1.554a15.641,15.641,0,0,1-2.13,1.729,6.513,6.513,0,0,1-1.783.86,6.979,6.979,0,0,1-2,.256,8.182,8.182,0,0,1-2.242-.289,5.789,5.789,0,0,1-1.92-1.019,8.139,8.139,0,0,1-1.773-2.043l-2.126-3.293a10.509,10.509,0,0,1-4.876-1.653,8.615,8.615,0,0,1-3.057-3.983,17.484,17.484,0,0,1-1.09-6.594,16.842,16.842,0,0,1,1.288-6.89,9.293,9.293,0,0,1,3.752-4.34,11.333,11.333,0,0,1,5.909-1.485q5.333,0,8.006,3.063t2.682,9.136a16.157,16.157,0,0,1-1.768,8.026,8.987,8.987,0,0,1-5.284,4.241m-8.9-12.24c0,3.609.444,6.29,1.3,8.049a4.186,4.186,0,0,0,3.958,2.646,3.7,3.7,0,0,0,2.332-.744,5.212,5.212,0,0,0,1.56-2.079,11.95,11.95,0,0,0,.868-3.159,30.183,30.183,0,0,0,.257-4.016,26.908,26.908,0,0,0-.566-5.97,7.914,7.914,0,0,0-1.7-3.631,3.773,3.773,0,0,0-2.909-1.229,4.073,4.073,0,0,0-3.838,2.481q-1.257,2.49-1.26,7.651" transform="translate(-37.881 -20.378)" fill="#fffaeb"></path><path id="Trazado_27" data-name="Trazado 27" d="M217.841,95.709a11.637,11.637,0,0,0-.116-1.88,1.607,1.607,0,0,0-.455-.841,3.162,3.162,0,0,0-1.329-.588V91.212H223.8V92.4a4.14,4.14,0,0,0-1.017.384,1.363,1.363,0,0,0-.576.576,2.612,2.612,0,0,0-.262.922c-.022.375-.039.852-.039,1.427V106.9a16.073,16.073,0,0,1-.357,3.72,7.22,7.22,0,0,1-1.1,2.517,5.87,5.87,0,0,1-1.866,1.644,8.21,8.21,0,0,1-2.512.9,16.342,16.342,0,0,1-3.121.266,15.447,15.447,0,0,1-4.288-.519,6.906,6.906,0,0,1-2.834-1.6,6.586,6.586,0,0,1-1.625-2.579,12.456,12.456,0,0,1-.518-3.927V95.724c0-.57-.019-1.03-.048-1.413a2.554,2.554,0,0,0-.236-.928,1.326,1.326,0,0,0-.575-.585,3.9,3.9,0,0,0-1.054-.4V91.212h9.366V92.4a3.732,3.732,0,0,0-1.084.419,1.55,1.55,0,0,0-.524.541,2.417,2.417,0,0,0-.245.851,9.4,9.4,0,0,0-.08,1.513V107.55a16.486,16.486,0,0,0,.183,2.581,5.87,5.87,0,0,0,.654,2,3.341,3.341,0,0,0,1.311,1.281,4.542,4.542,0,0,0,2.148.443,4.187,4.187,0,0,0,2.717-.743,3.813,3.813,0,0,0,1.249-2.043,15.1,15.1,0,0,0,.379-3.933Z" transform="translate(-45.842 -20.46)" fill="#fffaeb"></path><path id="Trazado_28" data-name="Trazado 28" d="M254.737,91.21v5.7h-2.449a10.548,10.548,0,0,0-1-2.3,3.318,3.318,0,0,0-.98-.946,3.945,3.945,0,0,0-1.943-.351h-3.9v8.6h2.369a2.923,2.923,0,0,0,1.232-.224,1.87,1.87,0,0,0,.739-.746,6.852,6.852,0,0,0,.555-1.61h2.019V106.6h-2.019a6.481,6.481,0,0,0-.546-1.586,1.912,1.912,0,0,0-.729-.776,2.594,2.594,0,0,0-1.25-.231h-2.369v9.558h3.886a5.423,5.423,0,0,0,1.046-.081,2.422,2.422,0,0,0,1.415-.816,4.543,4.543,0,0,0,.556-.731,7.4,7.4,0,0,0,.512-1.036c.168-.434.367-1.018.582-1.779h2.453l-.343,6.539H237.034v-1.182a5.132,5.132,0,0,0,1.045-.384,1.382,1.382,0,0,0,.571-.573,2.539,2.539,0,0,0,.23-.925,11.473,11.473,0,0,0,.067-1.427V95.724c0-.569-.017-1.032-.039-1.413a2.669,2.669,0,0,0-.241-.93,1.468,1.468,0,0,0-.57-.585,3.948,3.948,0,0,0-1.063-.4V91.21Z" transform="translate(-53.854 -20.459)" fill="#fffaeb"></path><path id="Trazado_29" data-name="Trazado 29" d="M287.875,111.179a10.322,10.322,0,0,0,.1,1.675,1.828,1.828,0,0,0,.3.787,1.452,1.452,0,0,0,.585.492,4.092,4.092,0,0,0,1.185.341v1.182h-9.6v-1.182a5.415,5.415,0,0,0,1.042-.384,1.343,1.343,0,0,0,.566-.575,2.452,2.452,0,0,0,.243-.924c.039-.374.053-.852.053-1.427V95.721c0-.568-.008-1.028-.044-1.41a2.547,2.547,0,0,0-.226-.929,1.479,1.479,0,0,0-.58-.586,4.09,4.09,0,0,0-1.056-.4V91.21h10.365q4.5,0,6.757,1.626a5.729,5.729,0,0,1,2.256,4.985,7.852,7.852,0,0,1-1.063,4.138,6.572,6.572,0,0,1-3.042,2.662,12.255,12.255,0,0,1-5,.893c-1.161,0-2.106-.016-2.845-.062Zm0-7.748h1.539a6.5,6.5,0,0,0,2.837-.519,3.23,3.23,0,0,0,1.56-1.615,7.251,7.251,0,0,0,.5-2.992,7.13,7.13,0,0,0-.5-2.968,3.059,3.059,0,0,0-1.487-1.561,5.788,5.788,0,0,0-2.515-.472c-.835,0-1.478.015-1.935.03Z" transform="translate(-63.717 -20.459)" fill="#fffaeb"></path><path id="Trazado_30" data-name="Trazado 30" d="M320.07,108.049h-7.608l-.593,1.7c-.161.486-.308.952-.409,1.4a6.155,6.155,0,0,0-.171,1.42,1.723,1.723,0,0,0,1.859,1.879v1.184h-7.61V114.44a2.176,2.176,0,0,0,1.156-.461,4.168,4.168,0,0,0,.91-1.077,13.247,13.247,0,0,0,.878-1.947l7.424-19.9h4.78l5.883,20.051a19.247,19.247,0,0,0,.651,1.918,2.727,2.727,0,0,0,.711.9,2.54,2.54,0,0,0,1.189.517v1.184H319.27V114.44a2.33,2.33,0,0,0,1.377-.521,1.5,1.5,0,0,0,.451-1.161,7.024,7.024,0,0,0-.134-1.234c-.072-.455-.218-1.027-.4-1.726Zm-6.947-2.093h6.441L316.7,95.874Z" transform="translate(-69.418 -20.425)" fill="#fffaeb"></path><path id="Trazado_31" data-name="Trazado 31" d="M349.027,111.179a9.491,9.491,0,0,0,.1,1.675,1.743,1.743,0,0,0,.293.787,1.455,1.455,0,0,0,.584.492,4.189,4.189,0,0,0,1.189.341v1.182H341.6v-1.182a4.882,4.882,0,0,0,1.029-.384,1.4,1.4,0,0,0,.583-.575,2.683,2.683,0,0,0,.235-.924,13.858,13.858,0,0,0,.066-1.427V95.721a14,14,0,0,0-.058-1.41,2.448,2.448,0,0,0-.233-.929,1.456,1.456,0,0,0-.565-.586,4.2,4.2,0,0,0-1.056-.4V91.21h10.366c3,0,5.269.545,6.75,1.626a5.7,5.7,0,0,1,2.257,4.985,7.739,7.739,0,0,1-1.063,4.138,6.506,6.506,0,0,1-3.051,2.662,12.107,12.107,0,0,1-5,.893c-1.15,0-2.081-.016-2.834-.062Zm0-7.748h1.543a6.5,6.5,0,0,0,2.839-.519,3.22,3.22,0,0,0,1.555-1.615,7.342,7.342,0,0,0,.52-2.992,7.22,7.22,0,0,0-.52-2.968,3.017,3.017,0,0,0-1.481-1.561,5.782,5.782,0,0,0-2.512-.472c-.838,0-1.488.015-1.943.03Z" transform="translate(-77.611 -20.459)" fill="#fffaeb"></path><path id="Trazado_32" data-name="Trazado 32" d="M381.228,108.049h-7.606l-.587,1.7a13.38,13.38,0,0,0-.424,1.4,6.716,6.716,0,0,0-.165,1.42,1.72,1.72,0,0,0,1.857,1.879v1.184H366.7V114.44a2.187,2.187,0,0,0,1.145-.461,4.069,4.069,0,0,0,.918-1.077,12.663,12.663,0,0,0,.874-1.947l7.437-19.9h4.774l5.87,20.051a19.4,19.4,0,0,0,.666,1.918,2.482,2.482,0,0,0,1.891,1.416v1.184h-9.835V114.44a2.319,2.319,0,0,0,1.363-.521,1.482,1.482,0,0,0,.437-1.161,6.3,6.3,0,0,0-.125-1.234c-.074-.455-.218-1.027-.392-1.726Zm-6.94-2.093h6.42l-2.845-10.082Z" transform="translate(-83.314 -20.425)" fill="#fffaeb"></path><path id="Trazado_33" data-name="Trazado 33" d="M404.393,109.545a6.114,6.114,0,0,0,1.486,3.169,4.094,4.094,0,0,0,3.057,1.059,4.826,4.826,0,0,0,1.891-.359,2.939,2.939,0,0,0,1.357-1.163,3.634,3.634,0,0,0,.489-1.991,4.163,4.163,0,0,0-.4-1.923,4.888,4.888,0,0,0-1.32-1.547,14.945,14.945,0,0,0-2.53-1.565,21.374,21.374,0,0,1-2.515-1.454,9.394,9.394,0,0,1-1.934-1.655,6.758,6.758,0,0,1-1.216-1.979,6.154,6.154,0,0,1-.447-2.417,6.32,6.32,0,0,1,1.092-3.742,6.661,6.661,0,0,1,3.16-2.332,13.064,13.064,0,0,1,4.768-.8,26.966,26.966,0,0,1,3.035.162,32.833,32.833,0,0,1,3.3.607V96.81h-2.452a7.644,7.644,0,0,0-.855-2.244,3.4,3.4,0,0,0-1.31-1.234,5.046,5.046,0,0,0-3.818-.032,2.864,2.864,0,0,0-1.254,1.062,3.02,3.02,0,0,0-.469,1.719,3.808,3.808,0,0,0,.407,1.794,4.638,4.638,0,0,0,1.339,1.487A19.187,19.187,0,0,0,412,101.016a19.076,19.076,0,0,1,3.465,2.244,7.418,7.418,0,0,1,1.855,2.4,7.341,7.341,0,0,1,.593,3.021,6.985,6.985,0,0,1-1.019,3.826A6.5,6.5,0,0,1,413.935,115a11.1,11.1,0,0,1-4.5.866,35.832,35.832,0,0,1-3.791-.209,28.784,28.784,0,0,1-3.694-.6v-5.512Z" transform="translate(-91.322 -20.378)" fill="#fffaeb"></path><path id="Trazado_34" data-name="Trazado 34" d="M449.274,95.544a6.065,6.065,0,0,1-.409,2.226,5.333,5.333,0,0,1-3,2.993,5.919,5.919,0,0,1-2.213.418,5.8,5.8,0,0,1-2.179-.4,5.317,5.317,0,0,1-1.8-1.158,5.42,5.42,0,0,1-1.212-1.817,6.2,6.2,0,0,1,0-4.515,5.3,5.3,0,0,1,1.214-1.817,5.518,5.518,0,0,1,1.8-1.163,6.212,6.212,0,0,1,4.389.015,5.441,5.441,0,0,1,1.812,1.187,5.385,5.385,0,0,1,1.186,1.807,6.1,6.1,0,0,1,.409,2.229m-1.1,0a5.092,5.092,0,0,0-.574-2.426,4.189,4.189,0,0,0-1.617-1.684,4.874,4.874,0,0,0-4.662,0,4.108,4.108,0,0,0-1.607,1.673,5.539,5.539,0,0,0,0,4.884,4.09,4.09,0,0,0,1.607,1.675,4.864,4.864,0,0,0,4.673-.006,4.1,4.1,0,0,0,1.609-1.679,5.161,5.161,0,0,0,.571-2.434m-4.631,3.224h-2.8v-.448a1.179,1.179,0,0,0,.385-.151.442.442,0,0,0,.141-.23,2.356,2.356,0,0,0,.04-.516V93.608a2.351,2.351,0,0,0-.04-.509.487.487,0,0,0-.132-.223,1.194,1.194,0,0,0-.393-.157v-.45h3.046a3.5,3.5,0,0,1,1.948.421,1.436,1.436,0,0,1,.606,1.267A1.578,1.578,0,0,1,445.961,95a2.586,2.586,0,0,1-1.118.715v.1a1.662,1.662,0,0,1,.679.446,2.645,2.645,0,0,1,.47.774l.226.541a1.918,1.918,0,0,0,.218.42.736.736,0,0,0,.22.216.974.974,0,0,0,.332.11v.448h-1.906c-.107-.172-.2-.342-.291-.507s-.175-.365-.273-.589l-.367-.89a2.145,2.145,0,0,0-.164-.327,1.026,1.026,0,0,0-.209-.258.548.548,0,0,0-.255-.125,1.722,1.722,0,0,0-.376-.036h-.228v1.386a1.992,1.992,0,0,0,.042.483.458.458,0,0,0,.167.253,1.267,1.267,0,0,0,.414.161Zm-.623-5.774v2.342h.408a2.149,2.149,0,0,0,.692-.1,1.183,1.183,0,0,0,.434-.27.848.848,0,0,0,.216-.392,1.818,1.818,0,0,0,.06-.477,1.1,1.1,0,0,0-.3-.833,1.3,1.3,0,0,0-.951-.285c-.216,0-.4,0-.559.015" transform="translate(-99.521 -20.169)" fill="#fffaeb"></path></g></g></g></svg> 