<?xml version="1.0" encoding="utf-8"?>
<!-- Generator: Adobe Illustrator 22.0.1, SVG Export Plug-In . SVG Version: 6.00 Build 0)  -->
<svg version="1.1" id="Layer_1" xmlns="http://www.w3.org/2000/svg" xmlns:xlink="http://www.w3.org/1999/xlink" x="0px" y="0px"
	 viewBox="0 0 194.8 188.2" style="enable-background:new 0 0 194.8 188.2;" xml:space="preserve">
<style type="text/css">
	.st0{fill:url(#SVGID_1_);}
	.st1{fill:url(#SVGID_2_);}
	.st2{fill:url(#SVGID_3_);}
	.st3{fill:url(#SVGID_4_);}
	.st4{fill:#58595B;}
	.st5{fill:#939598;}
</style>
<g>
	<linearGradient id="SVGID_1_" gradientUnits="userSpaceOnUse" x1="30.7996" y1="57.758" x2="58.4162" y2="73.7025">
		<stop  offset="0" style="stop-color:#00A98E"/>
		<stop  offset="0.2934" style="stop-color:#008984"/>
		<stop  offset="0.6025" style="stop-color:#006E7A"/>
		<stop  offset="0.8489" style="stop-color:#005F73"/>
		<stop  offset="1" style="stop-color:#005A71"/>
	</linearGradient>
	<path class="st0" d="M43.1,63.8c-2-10.5-1-21.5,3.1-31.6c0.2-0.4,0.4-0.9,0.6-1.3c-12.8,17.9-17,41.4-9.2,63.8
		c0.5,1.3,1,2.6,1.5,3.9l13-13.6C47.5,78.4,44.5,71.2,43.1,63.8z"/>
	<g>
		<g>
			<linearGradient id="SVGID_2_" gradientUnits="userSpaceOnUse" x1="66.3945" y1="90.3121" x2="136.9063" y2="35.2222">
				<stop  offset="0" style="stop-color:#00A98E"/>
				<stop  offset="0.2934" style="stop-color:#008984"/>
				<stop  offset="0.6025" style="stop-color:#006E7A"/>
				<stop  offset="0.8489" style="stop-color:#005F73"/>
				<stop  offset="1" style="stop-color:#005A71"/>
			</linearGradient>
			<path class="st1" d="M148.3,49.9c-11.6,12.9-33.4,14.6-49.9,9.9c8.8,9.9,11.3,22.3,5.2,30.8c-3.4,4.8-9.6,7.1-16.1,7.7
				c5.9-0.6,11-3.1,14.2-7.5c7-9.8,1.3-25.3-12.7-34.6c0,0-2-1.2-2.8-1.7c-3.9-2.5-20.9-10.7-37,1.4c0.5,6,2.1,11.8,4.9,17.3
				c2.8,5.6,6.9,10.7,12,15c7.8,6.4,17,10.1,26.5,11.1c9.5,1,19.2-0.7,27.9-4.9c5.8-2.8,11.1-6.8,15.6-11.9
				c6.7-7.6,10.6-16.7,11.8-25.9C148.3,54.4,148.4,52.1,148.3,49.9z M68.9,77.5c-2,1.6-5,1.1-6.7-1.1c-1.7-2.2-1.5-5.2,0.5-6.8
				c2-1.6,5-1.1,6.7,1.1C71.2,72.9,70.9,75.9,68.9,77.5z"/>
			<linearGradient id="SVGID_3_" gradientUnits="userSpaceOnUse" x1="148.0653" y1="27.4526" x2="49.2153" y2="24.0007">
				<stop  offset="0" style="stop-color:#00A98E"/>
				<stop  offset="0.2934" style="stop-color:#008984"/>
				<stop  offset="0.6025" style="stop-color:#006E7A"/>
				<stop  offset="0.8489" style="stop-color:#005F73"/>
				<stop  offset="1" style="stop-color:#005A71"/>
			</linearGradient>
			<path class="st2" d="M142.6,26.4c-2.8-5.6-6.9-10.7-12-15c-7.8-6.4-17-10.1-26.5-11.1c-9.5-1-19.2,0.7-27.9,4.9
				C70.4,8,65,12,60.5,17.1C53.8,24.7,49.9,33.7,48.7,43c-0.3,2.2-0.4,4.5-0.4,6.7C60,36.9,81.8,35.2,98.2,39.8
				C89.4,30,87,17.5,93,9.1c3.4-4.8,9.6-7.1,16.1-7.7C103.1,2,98,4.5,94.9,8.8c-7,9.8-1.3,25.3,12.7,34.6c0,0,2,1.2,2.8,1.7
				c3.9,2.5,20.9,10.7,37.1-1.5C147,37.7,145.4,31.8,142.6,26.4z M134.1,29.8c-2,1.6-5,1.1-6.7-1.1c-1.7-2.2-1.5-5.2,0.5-6.8
				c2-1.6,5-1.1,6.7,1.1C136.3,25.2,136.1,28.2,134.1,29.8z"/>
		</g>
	</g>
	<linearGradient id="SVGID_4_" gradientUnits="userSpaceOnUse" x1="154.3881" y1="69.5019" x2="154.3881" y2="2.349">
		<stop  offset="0" style="stop-color:#00A98E"/>
		<stop  offset="0.2934" style="stop-color:#008984"/>
		<stop  offset="0.6025" style="stop-color:#006E7A"/>
		<stop  offset="0.8489" style="stop-color:#005F73"/>
		<stop  offset="1" style="stop-color:#005A71"/>
	</linearGradient>
	<path class="st3" d="M158.4,2.3l-13,13.5c4.3,6.4,7.1,13.5,8.4,20.8c1.9,10.5,0.8,21.5-3.4,31.5c-0.2,0.4-0.4,0.9-0.6,1.3
		c12.9-17.7,17.4-41.2,9.9-63.6C159.3,4.7,158.9,3.5,158.4,2.3z"/>
</g>
<g>
	<path class="st4" d="M7.8,130.7c0.2-2.4-1.2-3.7-3.1-4l-1.6-0.3v-1.6c0,0,5,0.2,9.7,0.2c0.1,1.2,0.2,2.1,1,3.7l12.3,26.7l11.6-25.3
		c1.5-3.3,1.5-5.1,1.5-5.1c5.4,0,9.3-0.2,9.3-0.2v1.6l-1.5,0.3c-1.8,0.4-3.2,1.6-3.1,3.6l2.4,27c0.2,2.7,1.4,3.6,4.1,3.9l1.9,0.3
		v1.6c0,0-5.1-0.2-8.6-0.2c-3.6,0-8.5,0.2-8.5,0.2v-1.6l1.4-0.3c2.8-0.5,4.4-3.1,4.1-7.1L39.2,133l-13.4,30.4l-1.6,0.2l-14.1-30.3
		L8.5,155c-0.2,3-0.5,5.7,3.6,6.3l2,0.3v1.6c0,0-3.2-0.2-7.6-0.2c-3.1,0-6.4,0.2-6.4,0.2v-1.6l1.4-0.3c3.2-0.5,4.4-3.8,4.7-7.8
		L7.8,130.7z"/>
	<path class="st4" d="M71.2,161.5v1.6c0,0-3.4-0.2-7.7-0.2c-3.8,0-7.5,0.2-7.5,0.2v-1.6l1.4-0.3c2.4-0.4,3.6-2.2,3.6-5.4v-25.7
		c0-2.5-0.9-3.2-3.2-3.6l-1.8-0.3v-1.6c0,0,3.4,0.2,7.7,0.2c3.8,0,7.5-0.2,7.5-0.2v1.6l-1.1,0.3c-2.2,0.5-3.9,2.2-3.9,5.4v25.7
		c0,2.5,1,3.2,3.2,3.6L71.2,161.5z"/>
	<path class="st4" d="M103.7,126.4v-1.6c0,0,4.8,0.2,7.5,0.2c2.5,0,6-0.2,6-0.2v1.6l-1,0.3c-2,0.5-3.7,2.2-3.7,5.4v31.4l-1.7,0.2
		l-26.9-30.5v24.6c0,2.5,0.8,3.2,3.9,3.6l2.6,0.3v1.6c0,0-5.2-0.2-8-0.2c-2.8,0-6.3,0.2-6.3,0.2v-1.6l1.4-0.3
		c2.4-0.4,3.6-2.2,3.6-5.4v-25.7c0-2.5-0.9-3.2-3.2-3.6l-1.8-0.3v-1.6c2.7,0.2,5.9,0.2,8.6,0.2c0.5,1.2,1.3,2.1,2.5,3.5l22.7,25.9
		v-24.1c0-2.5-0.7-3.2-3.5-3.6L103.7,126.4z"/>
	<path class="st4" d="M149.2,133.8h-1.3c-0.7-3.8-3.4-6.9-9.2-7.1c-0.2,0-2.5,0-2.7,0c-1.5,0-2.8,0.2-3.4,0.4c0,3,0,15.4,0,15.4h3.9
		c3.4,0,4.5-0.7,4.9-3.2l0.4-2.2h1.4c0,0-0.2,3-0.2,6c0,3.1,0.2,6.1,0.2,6.1h-1.4l-0.2-1.3c-0.3-2-1.6-3.3-4.6-3.3h-4.4v13.1
		c0,2.4,1.8,3.6,4.2,3.6c0.3,0,2.6,0,2.8,0c6.3-0.3,8.7-4.5,10.2-8.4l1.3,0.2l-1.7,10.1c0,0-14.4-0.2-19.6-0.2
		c-3.9,0-7.5,0.2-7.5,0.2v-1.6l1.4-0.3c2.4-0.4,3.6-2.2,3.6-5.4v-25.7c0-2.5-0.9-3.2-3.2-3.6l-1.8-0.3v-1.6c0,0,5.1,0.2,7.7,0.2
		c9,0,19.2-0.2,19.2-0.2V133.8z"/>
	<path class="st4" d="M155.1,144.9c0-10.8,7.4-20.9,21.2-20.9c10.3,0,18.7,7.1,18.7,19.1c0,10.8-7.4,20.9-21.2,20.9
		C163.5,164,155.1,156.9,155.1,144.9z M160.8,143.2c0,11.9,7.3,18.6,15.2,18.6c8.6,0,13.1-7.4,13.1-17.1c0-11.9-7.3-18.6-15.3-18.6
		C165.3,126.2,160.8,133.6,160.8,143.2z"/>
</g>
<g>
	<path class="st5" d="M47.1,181c-1.2-0.3-2.1-0.8-2.6-1.3c-0.5-0.5-0.8-1.1-0.8-1.9c0-0.8,0.3-1.5,1-2.1c0.7-0.5,1.5-0.8,2.6-0.8
		c0.7,0,1.4,0.1,2,0.4c0.6,0.3,1,0.7,1.3,1.2c0.3,0.5,0.5,1,0.5,1.6h-1.4c0-0.6-0.2-1.2-0.6-1.5s-1-0.6-1.7-0.6
		c-0.7,0-1.2,0.2-1.6,0.5c-0.4,0.3-0.6,0.7-0.6,1.3c0,0.4,0.2,0.8,0.6,1.1c0.4,0.3,1,0.6,1.9,0.8c0.9,0.2,1.6,0.5,2.1,0.8
		c0.5,0.3,0.9,0.6,1.1,1s0.4,0.9,0.4,1.4c0,0.9-0.3,1.6-1,2.1c-0.7,0.5-1.6,0.8-2.7,0.8c-0.7,0-1.4-0.1-2-0.4
		c-0.6-0.3-1.1-0.7-1.5-1.2s-0.5-1-0.5-1.7h1.4c0,0.6,0.2,1.2,0.7,1.5c0.5,0.4,1.1,0.6,1.9,0.6c0.7,0,1.3-0.2,1.7-0.5
		c0.4-0.3,0.6-0.7,0.6-1.2s-0.2-0.9-0.5-1.2C48.7,181.6,48,181.3,47.1,181z"/>
	<path class="st5" d="M66.3,180.8h-4.6v3.8H67v1.1h-6.8v-10.6H67v1.1h-5.3v3.4h4.6V180.8z"/>
	<path class="st5" d="M82.1,183h-4.5l-1,2.8h-1.4l4.1-10.6h1.2l4.1,10.6h-1.4L82.1,183z M78.1,181.8h3.6l-1.8-5L78.1,181.8z"/>
	<path class="st5" d="M99.6,181h-4.5v4.7h-1.4v-10.6h6.6v1.1h-5.2v3.6h4.5V181z"/>
	<path class="st5" d="M117.6,180.8c0,1-0.2,2-0.5,2.7c-0.4,0.8-0.8,1.4-1.5,1.8c-0.6,0.4-1.4,0.6-2.3,0.6c-0.8,0-1.6-0.2-2.2-0.6
		c-0.6-0.4-1.2-1-1.5-1.8c-0.4-0.8-0.5-1.6-0.6-2.6v-0.8c0-1,0.2-1.9,0.5-2.7s0.9-1.4,1.5-1.8c0.6-0.4,1.4-0.6,2.2-0.6
		c0.9,0,1.6,0.2,2.3,0.6c0.7,0.4,1.2,1,1.5,1.8c0.4,0.8,0.5,1.7,0.5,2.7V180.8z M116.2,180.1c0-1.3-0.3-2.2-0.8-2.9
		c-0.5-0.7-1.2-1-2.1-1c-0.9,0-1.6,0.3-2.1,1s-0.8,1.6-0.8,2.8v0.8c0,1.2,0.3,2.2,0.8,2.9c0.5,0.7,1.2,1,2.1,1c0.9,0,1.6-0.3,2.1-1
		c0.5-0.7,0.8-1.6,0.8-2.8V180.1z"/>
	<path class="st5" d="M135.4,180.8c0,1-0.2,2-0.5,2.7c-0.4,0.8-0.8,1.4-1.5,1.8c-0.6,0.4-1.4,0.6-2.3,0.6c-0.8,0-1.6-0.2-2.2-0.6
		c-0.6-0.4-1.2-1-1.5-1.8c-0.4-0.8-0.5-1.6-0.6-2.6v-0.8c0-1,0.2-1.9,0.5-2.7s0.9-1.4,1.5-1.8c0.6-0.4,1.4-0.6,2.2-0.6
		c0.9,0,1.6,0.2,2.3,0.6c0.7,0.4,1.2,1,1.5,1.8c0.4,0.8,0.5,1.7,0.5,2.7V180.8z M134,180.1c0-1.3-0.3-2.2-0.8-2.9
		c-0.5-0.7-1.2-1-2.1-1c-0.9,0-1.6,0.3-2.1,1s-0.8,1.6-0.8,2.8v0.8c0,1.2,0.3,2.2,0.8,2.9c0.5,0.7,1.2,1,2.1,1c0.9,0,1.6-0.3,2.1-1
		c0.5-0.7,0.8-1.6,0.8-2.8V180.1z"/>
	<path class="st5" d="M145,185.7v-10.6h3c0.9,0,1.7,0.2,2.5,0.6c0.7,0.4,1.3,1,1.6,1.7s0.6,1.6,0.6,2.6v0.7c0,1-0.2,1.9-0.6,2.6
		c-0.4,0.8-0.9,1.3-1.7,1.7c-0.7,0.4-1.6,0.6-2.5,0.6H145z M146.4,176.3v8.3h1.5c1.1,0,1.9-0.3,2.5-1s0.9-1.6,0.9-2.9v-0.6
		c0-1.2-0.3-2.1-0.9-2.8c-0.6-0.7-1.4-1-2.4-1H146.4z"/>
</g>
</svg>
