<?xml version="1.0" encoding="UTF-8"?>
<!DOCTYPE svg PUBLIC "-//W3C//DTD SVG 1.1//EN" "http://www.w3.org/Graphics/SVG/1.1/DTD/svg11.dtd">
<!-- Creator: CorelDRAW 2017 -->
<svg xmlns="http://www.w3.org/2000/svg" xml:space="preserve" width="243.594mm" height="44.4285mm" version="1.1" style="shape-rendering:geometricPrecision; text-rendering:geometricPrecision; image-rendering:optimizeQuality; fill-rule:evenodd; clip-rule:evenodd"
viewBox="0 0 24359 4443"
 xmlns:xlink="http://www.w3.org/1999/xlink">
 <defs>
  <style type="text/css">
   <![CDATA[
    .fil0 {fill:#FEFEFE}
    .fil1 {fill:#FEFEFE;fill-rule:nonzero}
   ]]>
  </style>
 </defs>
 <g id="Capa_x0020_1">
  <metadata id="CorelCorpID_0Corel-Layer"/>
  <g id="_2812311909536">
   <g>
    <path class="fil0" d="M14051 3352c86,17 176,26 270,26 104,0 205,-11 302,-33 98,-22 192,-56 283,-101 91,-45 176,-99 256,-163 59,-48 115,-101 168,-159l-442 -359c-24,26 -48,49 -74,71 -46,39 -96,73 -148,101 -53,28 -109,49 -166,64 -58,14 -118,21 -179,21 -53,0 -105,-5 -155,-16 -50,-11 -98,-27 -145,-48 -45,-21 -87,-46 -127,-74 -40,-28 -76,-60 -109,-95 -33,-35 -63,-73 -89,-114 -26,-40 -49,-84 -68,-131 -19,-47 -34,-95 -43,-145 -10,-50 -14,-100 -14,-152 0,-51 5,-101 14,-150 9,-48 24,-96 43,-144 19,-47 42,-90 67,-131 26,-41 56,-79 89,-115 33,-36 70,-68 110,-97 39,-28 83,-52 129,-73 93,-41 193,-62 300,-62 82,0 162,13 240,40 59,20 116,47 172,81l433 -379c-45,-35 -91,-67 -138,-97 -71,-44 -147,-82 -225,-113 -155,-61 -317,-92 -486,-92 -94,0 -184,9 -270,26 -86,17 -169,44 -249,79 -80,35 -156,77 -226,125 -70,48 -135,103 -195,163 -60,61 -114,127 -161,198 -47,70 -88,146 -123,228 -35,81 -61,164 -78,248 -17,84 -26,173 -26,265 0,92 9,180 26,265 17,84 43,167 78,248 35,81 76,157 123,228 47,71 101,137 161,198 60,61 125,115 195,163 70,48 146,90 226,125 80,35 164,61 249,79z"/>
    <g>
     <path class="fil1" d="M5098 4127l53 0c55,0 111,-7 155,-43 41,-34 63,-88 63,-141 0,-58 -25,-116 -74,-149 -48,-33 -106,-35 -162,-35l-108 0 0 655 73 0 0 -287zm0 -300l27 0c85,0 171,8 171,115 0,94 -69,118 -149,118l-49 0 0 -233zm877 587l340 0 0 -68 -267 0 0 -257 259 0 0 -68 -259 0 0 -195 267 0 0 -68 -340 0 0 655zm1332 -565c-35,-64 -96,-102 -169,-102 -97,0 -183,65 -183,167 0,94 66,133 142,168l40 17c61,28 121,54 121,130 0,74 -64,128 -135,128 -70,0 -122,-55 -131,-122l-71 20c21,102 99,169 204,169 114,0 206,-88 206,-202 0,-104 -72,-147 -157,-184l-43 -19c-44,-20 -102,-46 -102,-102 0,-60 50,-102 109,-102 56,0 87,26 113,71l58 -37zm1142 -37c-58,-43 -122,-64 -195,-64 -188,0 -341,154 -341,341 0,186 156,336 341,336 69,0 139,-23 195,-64l0 -90c-52,52 -124,87 -198,87 -147,0 -266,-127 -266,-271 0,-144 118,-271 264,-271 76,0 148,33 200,87l0 -90zm1014 416l77 186 81 0 -294 -686 -302 686 80 0 79 -186 280 0zm-29 -68l-221 0 112 -262 109 262zm775 254l73 0 0 -505 511 534 0 -684 -73 0 0 507 -511 -535 0 683zm1233 0l122 0c102,0 181,-13 259,-83 72,-64 107,-149 107,-244 0,-97 -34,-185 -109,-249 -77,-66 -157,-79 -255,-79l-123 0 0 655zm73 -68l0 -519 53 0c77,0 143,10 203,63 56,50 85,122 85,196 0,73 -28,142 -82,192 -60,56 -127,68 -207,68l-53 0zm1337 -598c-187,0 -341,152 -341,340 0,188 155,338 341,338 187,0 341,-149 341,-338 0,-188 -155,-340 -341,-340zm0 68c150,0 268,122 268,271 0,148 -120,271 -268,271 -149,0 -268,-123 -268,-271 0,-149 118,-271 268,-271zm1862 598l122 0c102,0 181,-13 259,-83 72,-64 107,-149 107,-244 0,-97 -34,-185 -109,-249 -77,-66 -157,-79 -255,-79l-123 0 0 655zm73 -68l0 -519 53 0c77,0 143,10 203,63 56,50 85,122 85,196 0,73 -28,142 -82,192 -60,56 -127,68 -207,68l-53 0zm1029 68l340 0 0 -68 -267 0 0 -257 259 0 0 -68 -259 0 0 -195 267 0 0 -68 -340 0 0 655zm1332 -565c-35,-64 -96,-102 -169,-102 -97,0 -183,65 -183,167 0,94 66,133 142,168l40 17c61,28 121,54 121,130 0,74 -64,128 -135,128 -70,0 -122,-55 -131,-122l-71 20c21,102 99,169 204,169 114,0 206,-88 206,-202 0,-104 -72,-147 -157,-184l-43 -19c-44,-20 -102,-46 -102,-102 0,-60 50,-102 109,-102 56,0 87,26 113,71l58 -37zm643 565l122 0c102,0 181,-13 259,-83 72,-64 107,-149 107,-244 0,-97 -34,-185 -109,-249 -77,-66 -157,-79 -255,-79l-123 0 0 655zm73 -68l0 -519 53 0c77,0 143,10 203,63 56,50 85,122 85,196 0,73 -28,142 -82,192 -60,56 -127,68 -207,68l-53 0zm1029 68l340 0 0 -68 -267 0 0 -257 259 0 0 -68 -259 0 0 -195 267 0 0 -68 -340 0 0 655zm2065 -587l0 587 73 0 0 -655 -143 0 -38 68 109 0zm1015 598l217 -297c34,-47 61,-98 61,-157 0,-124 -102,-223 -226,-223 -123,0 -226,99 -226,223 0,119 92,216 212,216 20,0 39,-3 56,-9l2 2 -151 208 55 37zm52 -610c84,0 153,69 153,153 0,85 -69,151 -153,151 -85,0 -153,-66 -153,-151 0,-84 68,-153 153,-153zm966 531l227 -267c34,-39 50,-85 50,-138 0,-114 -96,-194 -206,-194 -116,0 -200,88 -202,202l73 0c2,-76 53,-135 132,-135 71,0 130,54 130,127 0,43 -18,78 -44,109l-307 362 424 0 0 -68 -276 0zm1132 -598c-166,0 -234,205 -234,340 0,162 85,338 234,338 149,0 234,-176 234,-338 0,-135 -69,-340 -234,-340zm0 68c123,0 163,182 162,275 -2,92 -41,267 -162,267 -121,0 -160,-175 -162,-267 -2,-93 38,-275 162,-275z"/>
     <path class="fil0" d="M22886 2363l213 -704 78 -257 77 257 210 704 31 104 -108 0 -423 0 -109 0 31 -104zm774 617l118 315 581 0 -926 -2505 -517 0 -926 2505 581 0 118 -315 20 -53 56 0 821 0 56 0 20 53z"/>
     <polygon class="fil0" points="19902,3294 19901,3296 21847,3296 21847,2773 20866,2773 20729,2773 20796,2653 21823,810 21823,791 19941,791 19941,1313 20804,1313 20937,1313 20875,1431 19902,3293 "/>
     <polygon class="fil0" points="17748,3276 17748,3296 19748,3296 19748,2773 18767,2773 18630,2773 18696,2653 19723,810 19723,791 17841,791 17841,1313 18705,1313 18842,1313 18775,1433 "/>
     <path class="fil0" d="M17529 2716c37,-98 55,-203 55,-316l0 -1610 -581 0 0 1565c0,30 -3,60 -10,90 -7,30 -16,58 -29,84l0 0c-12,25 -27,49 -44,72 -17,23 -36,44 -57,62 -21,19 -43,35 -67,50 -23,14 -49,27 -76,37 -54,21 -112,31 -171,31 -28,0 -57,-3 -85,-8 -28,-5 -55,-13 -82,-23 -27,-10 -52,-23 -76,-37l0 0c-24,-15 -47,-31 -67,-50 -21,-18 -39,-39 -57,-62 -17,-23 -32,-47 -44,-72 -26,-54 -39,-112 -39,-174l0 -1565 -581 0 0 1610c0,56 5,111 14,163 9,53 23,104 41,152 19,50 41,97 66,142 25,44 55,86 89,127 34,41 70,78 109,112l0 0c40,36 83,68 128,96 46,29 94,56 144,78 49,22 101,42 155,58l1 1c22,7 46,14 71,20 23,6 46,11 72,15 23,4 47,7 71,9 24,2 48,3 72,3 49,0 97,-4 144,-12 26,-4 50,-10 73,-15 25,-6 48,-13 71,-20l1 -1c54,-16 106,-36 155,-58 50,-23 98,-49 144,-78 45,-29 87,-61 128,-96l0 0c39,-34 75,-72 109,-112 34,-41 63,-83 89,-127 26,-45 48,-92 66,-142z"/>
     <path class="fil0" d="M11361 3363c84,10 170,15 256,15 72,0 142,-3 210,-9 70,-6 140,-16 211,-29 68,-12 133,-29 195,-51 61,-21 119,-47 174,-77l0 0c52,-29 100,-63 144,-103 44,-40 83,-85 117,-135l0 0c33,-49 59,-104 78,-167 19,-65 31,-138 35,-219 1,-28 2,-56 1,-83 -1,-27 -3,-56 -5,-84 -3,-28 -7,-53 -13,-77 -6,-24 -14,-48 -24,-71l-1 -1c-12,-30 -27,-59 -45,-86 -17,-26 -37,-50 -60,-72 -24,-23 -49,-45 -76,-65 -27,-20 -57,-39 -88,-56 -31,-17 -65,-34 -99,-49 -36,-16 -72,-30 -106,-41l0 0c-39,-13 -78,-25 -114,-36 -38,-11 -76,-22 -113,-32l0 0c-35,-9 -73,-18 -114,-28 -39,-9 -76,-17 -109,-24l0 0c-41,-8 -76,-16 -106,-23 -32,-7 -65,-16 -98,-24 -33,-9 -63,-18 -90,-27 -27,-10 -53,-20 -77,-31 -26,-12 -49,-26 -67,-40 -21,-17 -38,-36 -50,-56l-1 -2c-20,-36 -28,-77 -26,-124 1,-29 7,-56 15,-81l0 0c9,-27 23,-51 41,-72 15,-18 33,-35 52,-49l0 0c19,-14 40,-26 63,-35 40,-17 84,-28 131,-32 43,-4 81,-6 116,-6 76,0 149,5 220,16 71,11 140,28 205,50 105,35 212,79 322,130l49 -79 88 -141c33,-53 62,-99 89,-142l48 -75c-52,-30 -104,-56 -157,-79 -76,-33 -154,-60 -235,-80l0 0c-81,-21 -164,-36 -247,-46 -83,-10 -167,-15 -252,-15 -53,0 -105,2 -156,6l0 0c-52,4 -104,10 -156,17 -51,8 -101,18 -150,31 -49,13 -97,29 -143,47 -45,18 -89,39 -130,63 -42,25 -83,53 -121,85 -37,31 -72,65 -102,104 -31,39 -60,83 -85,130l0 0c-12,24 -24,48 -33,73 -10,25 -18,50 -25,76 -7,27 -13,53 -17,79 -4,25 -7,51 -8,78 -4,78 -1,147 9,206l0 0c10,58 26,109 49,151l0 0c24,44 52,84 84,119 32,35 70,65 112,92l1 1c21,13 43,26 67,38 24,12 48,23 73,33 53,21 108,40 168,58l1 0c28,9 57,17 87,25 29,8 59,15 90,22 30,7 63,14 97,22l0 0c32,7 65,15 98,23 25,6 49,11 73,16 26,5 50,10 73,14 28,5 55,11 81,19 28,8 54,17 79,26l0 0c13,5 25,9 34,13l0 0c12,5 25,11 37,18 13,7 25,14 38,22l0 0c11,7 23,15 36,25 13,10 26,21 37,32l0 0c11,11 21,24 30,38 11,16 19,34 24,54l0 0c5,19 7,39 6,59 -2,34 -7,65 -17,93 -11,31 -26,58 -47,81l0 0c-17,19 -37,37 -59,52 -21,14 -45,26 -70,36l0 0c-23,8 -46,15 -71,20l0 0c-24,5 -49,9 -75,11 -48,4 -92,5 -132,5 -73,0 -144,-4 -213,-13 -69,-9 -136,-22 -202,-40 -65,-18 -129,-39 -192,-63 -62,-24 -125,-53 -189,-85l-4 -2c-4,-2 -8,-5 -12,-7 -11,17 -24,37 -39,61l-58 89 -60 92 0 0c-12,19 -22,36 -30,48 -9,14 -19,30 -30,47l0 0c-12,19 -21,33 -27,43l0 0 -24 38 0 1 -11 17c73,35 147,65 222,92 80,28 162,53 246,73l0 0c84,20 168,35 253,46z"/>
     <path class="fil0" d="M8962 1255c53,-11 107,-17 162,-17 56,0 110,6 162,17 52,11 103,28 152,51 47,22 92,48 133,78 42,30 79,63 114,100 34,37 65,77 92,120 27,43 50,89 70,137 39,98 59,201 59,310 0,53 -5,105 -15,157 -10,51 -24,101 -44,151 -20,50 -43,96 -69,138 -27,43 -58,83 -92,120 -34,37 -72,70 -114,100 -42,30 -86,56 -133,78l0 0c-97,45 -202,68 -314,68 -56,0 -110,-6 -162,-17 -52,-11 -103,-28 -152,-51 -48,-22 -92,-48 -133,-78 -42,-30 -79,-63 -114,-100 -35,-37 -65,-77 -92,-120 -26,-42 -50,-88 -69,-138 -20,-50 -35,-100 -44,-151 -10,-52 -15,-104 -15,-157 0,-54 5,-107 15,-159 10,-52 25,-102 44,-151 20,-48 43,-94 70,-137 27,-43 58,-83 92,-120 34,-37 72,-70 114,-100 41,-30 85,-55 133,-78 49,-23 100,-40 152,-51zm-108 2097c87,17 177,26 271,26 92,0 181,-9 268,-26 87,-17 172,-43 252,-77 81,-34 158,-76 229,-123 71,-47 137,-101 197,-160 61,-60 115,-125 162,-195 48,-71 89,-147 125,-228 35,-81 61,-164 79,-250 17,-85 26,-175 26,-268 0,-93 -9,-182 -26,-268 -17,-86 -44,-169 -79,-250 -35,-81 -77,-157 -125,-228 -47,-70 -102,-135 -162,-195 -60,-60 -126,-114 -197,-161 -71,-47 -147,-89 -230,-124 -82,-35 -166,-62 -251,-79 -86,-17 -175,-26 -268,-26 -94,0 -184,9 -270,26 -87,17 -170,44 -251,79 -81,35 -157,77 -228,124 -71,47 -136,101 -197,161 -61,60 -115,125 -162,195 -48,71 -89,147 -125,228 -35,81 -61,164 -79,250 -17,85 -26,175 -26,268 0,93 9,182 26,268 17,86 44,169 79,250 35,81 77,157 125,228 47,70 102,135 162,195 60,60 126,114 197,161 71,47 147,88 228,123 80,34 164,60 251,77z"/>
     <path class="fil0" d="M6978 2005l0 1290 536 0 0 -2505 -567 0 -631 1047 -69 115 -69 -115 -627 -1046 -567 0 0 2505 536 0 0 -1290 0 -288 149 246 564 931 23 0c62,-76 520,-846 571,-931l149 -246 0 288z"/>
    </g>
   </g>
   <g>
    <g>
     <path class="fil0" d="M3128 0c-573,185 -1127,445 -1632,776 -576,377 -1090,847 -1496,1403 457,713 969,1230 1569,1592 421,254 885,431 1402,545 -338,-108 -652,-252 -943,-437 -595,-378 -1100,-925 -1544,-1685 420,-610 946,-1128 1534,-1548 351,-251 724,-466 1109,-646z"/>
     <path class="fil0" d="M3625 439c1098,1604 465,3177 -265,3860 -69,-16 -138,-35 -206,-55 1037,-1180 1143,-2454 471,-3805z"/>
    </g>
    <path class="fil0" d="M2097 1056c167,77 246,287 169,454 -80,174 -290,245 -456,168 -174,-80 -249,-282 -168,-456 77,-167 281,-246 455,-166z"/>
   </g>
  </g>
 </g>
</svg>
